<svg width="318" height="99" viewBox="0 0 318 99" fill="none" xmlns="http://www.w3.org/2000/svg">
<path d="M23.85 28.587L36.07 0.809998H46.598V2.596C45.5953 2.62733 44.7807 2.75267 44.154 2.972C43.5587 3.19133 43.0887 3.56733 42.744 4.1C42.4307 4.60133 42.2113 5.30633 42.086 6.215C41.992 7.12366 41.945 8.283 41.945 9.693V28.117C41.945 29.6837 42.0077 30.9213 42.133 31.83C42.2583 32.7387 42.4933 33.4437 42.838 33.945C43.214 34.4463 43.731 34.7753 44.389 34.932C45.0783 35.0887 45.9713 35.1827 47.068 35.214V37H31.84V35.214C32.9367 35.1827 33.814 35.0887 34.472 34.932C35.1613 34.744 35.694 34.415 36.07 33.945C36.446 33.475 36.6967 32.817 36.822 31.971C36.9473 31.0937 37.01 29.9187 37.01 28.446V6.638H36.54L22.816 37.47H21.782L8.293 6.638H8.105V28.117C8.105 29.6837 8.16767 30.9213 8.293 31.83C8.41833 32.7387 8.65333 33.4437 8.998 33.945C9.374 34.4463 9.891 34.7753 10.549 34.932C11.2383 35.0887 12.1313 35.1827 13.228 35.214V37H0.115V35.214C1.21167 35.1827 2.089 35.0887 2.747 34.932C3.43633 34.744 3.969 34.415 4.345 33.945C4.721 33.475 4.97167 32.817 5.097 31.971C5.22233 31.0937 5.285 29.9187 5.285 28.446V9.364C5.285 8.048 5.22233 6.967 5.097 6.121C5.003 5.24366 4.78367 4.55433 4.439 4.053C4.12567 3.55167 3.65567 3.207 3.029 3.019C2.40233 2.79967 1.58767 2.65867 0.585 2.596V0.809998H11.818L23.662 28.587H23.85ZM67.5211 0.339999C70.2784 0.339999 72.8477 0.825665 75.2291 1.797C77.6104 2.76833 79.6784 4.1 81.4331 5.792C83.1877 7.484 84.5664 9.47367 85.5691 11.761C86.5717 14.0483 87.0731 16.5237 87.0731 19.187C87.0731 21.725 86.5561 24.1063 85.5221 26.331C84.5194 28.5557 83.1407 30.4983 81.3861 32.159C79.6314 33.7883 77.5634 35.0887 75.1821 36.06C72.8007 37 70.2471 37.47 67.5211 37.47C64.7951 37.47 62.2414 37 59.8601 36.06C57.4787 35.0887 55.4107 33.7883 53.6561 32.159C51.9014 30.4983 50.5071 28.5557 49.4731 26.331C48.4704 24.1063 47.9691 21.725 47.9691 19.187C47.9691 16.5237 48.4704 14.0483 49.4731 11.761C50.4757 9.47367 51.8544 7.484 53.6091 5.792C55.3637 4.1 57.4317 2.76833 59.8131 1.797C62.1944 0.825665 64.7637 0.339999 67.5211 0.339999ZM67.5211 34.885C69.5891 34.885 71.4377 34.5247 73.0671 33.804C74.7277 33.0833 76.1377 32.0493 77.2971 30.702C78.4877 29.3547 79.3964 27.7253 80.0231 25.814C80.6497 23.8713 80.9631 21.7093 80.9631 19.328C80.9631 16.8213 80.6497 14.5653 80.0231 12.56C79.3964 10.5233 78.5034 8.8 77.3441 7.39C76.1847 5.94866 74.7747 4.852 73.1141 4.1C71.4534 3.31667 69.5891 2.925 67.5211 2.925C65.4531 2.925 63.5887 3.31667 61.9281 4.1C60.2674 4.852 58.8574 5.94866 57.6981 7.39C56.5387 8.8 55.6457 10.5233 55.0191 12.56C54.3924 14.5653 54.0791 16.8213 54.0791 19.328C54.0791 21.7093 54.3924 23.8713 55.0191 25.814C55.6457 27.7253 56.5387 29.3547 57.6981 30.702C58.8574 32.0493 60.2674 33.0833 61.9281 33.804C63.5887 34.5247 65.4531 34.885 67.5211 34.885ZM98.6957 17.119C100.388 17.119 101.798 17.025 102.926 16.837C104.085 16.6177 104.994 16.2887 105.652 15.85C106.341 15.4113 106.827 14.8473 107.109 14.158C107.422 13.4687 107.579 12.654 107.579 11.714H109.224V24.545H107.579C107.579 23.605 107.438 22.7903 107.156 22.101C106.905 21.4117 106.435 20.8477 105.746 20.409C105.088 19.939 104.179 19.5943 103.02 19.375C101.892 19.1243 100.45 18.999 98.6957 18.999V29.621C98.6957 30.655 98.821 31.5167 99.0717 32.206C99.3223 32.864 99.7453 33.4123 100.341 33.851C100.967 34.2583 101.782 34.556 102.785 34.744C103.787 34.9007 105.025 34.979 106.498 34.979C108.158 34.979 109.568 34.8693 110.728 34.65C111.887 34.3993 112.858 33.992 113.642 33.428C114.425 32.864 115.052 32.1277 115.522 31.219C115.992 30.279 116.383 29.1197 116.697 27.741H118.483L117.778 37H88.5907V35.214C89.6873 35.1827 90.5647 35.0887 91.2227 34.932C91.912 34.7753 92.4447 34.509 92.8207 34.133C93.1967 33.757 93.4473 33.2243 93.5727 32.535C93.698 31.8457 93.7607 30.9527 93.7607 29.856V7.954C93.7607 6.85733 93.698 5.98 93.5727 5.322C93.4787 4.63267 93.2593 4.1 92.9147 3.724C92.6013 3.31667 92.1313 3.05033 91.5047 2.925C90.878 2.76833 90.0633 2.65867 89.0607 2.596V0.809998H116.227L116.65 9.082H115.005C114.817 7.82867 114.503 6.81033 114.065 6.027C113.657 5.21233 113.078 4.57 112.326 4.1C111.605 3.63 110.681 3.301 109.553 3.113C108.425 2.925 107.062 2.831 105.464 2.831H99.4947C98.962 2.831 98.6957 3.09733 98.6957 3.63V17.119ZM151.504 9.881C151.504 12.3877 150.752 14.4713 149.248 16.132C147.744 17.7927 145.347 18.905 142.057 19.469L152.444 31.971C153.29 33.005 154.215 33.757 155.217 34.227C156.251 34.6657 157.473 34.9947 158.883 35.214V37H149.812L138.297 22.242C137.89 21.7093 137.498 21.2863 137.122 20.973C136.778 20.6597 136.402 20.4247 135.994 20.268C135.618 20.08 135.164 19.9703 134.631 19.939C134.13 19.8763 133.519 19.845 132.798 19.845V29.621C132.798 30.7803 132.861 31.736 132.986 32.488C133.143 33.2087 133.441 33.7727 133.879 34.18C134.349 34.5873 135.007 34.8693 135.853 35.026C136.731 35.1513 137.874 35.214 139.284 35.214V37H122.693V35.214C123.79 35.1827 124.667 35.0887 125.325 34.932C126.015 34.7753 126.547 34.509 126.923 34.133C127.299 33.757 127.55 33.2243 127.675 32.535C127.801 31.8457 127.863 30.9527 127.863 29.856V7.954C127.863 6.85733 127.801 5.98 127.675 5.322C127.581 4.63267 127.362 4.1 127.017 3.724C126.704 3.31667 126.234 3.05033 125.607 2.925C124.981 2.76833 124.166 2.65867 123.163 2.596V0.809998H137.921C142.245 0.809998 145.582 1.609 147.932 3.207C150.314 4.805 151.504 7.02966 151.504 9.881ZM132.798 17.495H136.135C139.269 17.495 141.587 16.931 143.091 15.803C144.627 14.6437 145.394 12.748 145.394 10.116C145.394 7.578 144.783 5.76066 143.561 4.664C142.371 3.56733 140.491 3.019 137.921 3.019H133.597C133.065 3.019 132.798 3.28533 132.798 3.818V17.495ZM169.838 28.117C169.838 29.6837 169.901 30.9213 170.026 31.83C170.152 32.7387 170.387 33.4437 170.731 33.945C171.107 34.4463 171.624 34.7753 172.282 34.932C172.972 35.0887 173.865 35.1827 174.961 35.214V37H159.733V35.214C160.83 35.1827 161.707 35.0887 162.365 34.932C163.055 34.744 163.587 34.415 163.963 33.945C164.339 33.475 164.59 32.817 164.715 31.971C164.841 31.0937 164.903 29.9187 164.903 28.446V9.364C164.903 8.048 164.841 6.967 164.715 6.121C164.621 5.24366 164.402 4.55433 164.057 4.053C163.744 3.55167 163.274 3.207 162.647 3.019C162.021 2.79967 161.206 2.65867 160.203 2.596V0.809998H174.491V2.596C173.489 2.62733 172.674 2.75267 172.047 2.972C171.452 3.19133 170.982 3.56733 170.637 4.1C170.324 4.60133 170.105 5.30633 169.979 6.215C169.885 7.12366 169.838 8.283 169.838 9.693V28.117ZM23.85 89.587L36.07 61.81H46.598V63.596C45.5953 63.6273 44.7807 63.7527 44.154 63.972C43.5587 64.1913 43.0887 64.5673 42.744 65.1C42.4307 65.6013 42.2113 66.3063 42.086 67.215C41.992 68.1237 41.945 69.283 41.945 70.693V89.117C41.945 90.6837 42.0077 91.9213 42.133 92.83C42.2583 93.7387 42.4933 94.4437 42.838 94.945C43.214 95.4463 43.731 95.7753 44.389 95.932C45.0783 96.0887 45.9713 96.1827 47.068 96.214V98H31.84V96.214C32.9367 96.1827 33.814 96.0887 34.472 95.932C35.1613 95.744 35.694 95.415 36.07 94.945C36.446 94.475 36.6967 93.817 36.822 92.971C36.9473 92.0937 37.01 90.9187 37.01 89.446V67.638H36.54L22.816 98.47H21.782L8.293 67.638H8.105V89.117C8.105 90.6837 8.16767 91.9213 8.293 92.83C8.41833 93.7387 8.65333 94.4437 8.998 94.945C9.374 95.4463 9.891 95.7753 10.549 95.932C11.2383 96.0887 12.1313 96.1827 13.228 96.214V98H0.115V96.214C1.21167 96.1827 2.089 96.0887 2.747 95.932C3.43633 95.744 3.969 95.415 4.345 94.945C4.721 94.475 4.97167 93.817 5.097 92.971C5.22233 92.0937 5.285 90.9187 5.285 89.446V70.364C5.285 69.048 5.22233 67.967 5.097 67.121C5.003 66.2437 4.78367 65.5543 4.439 65.053C4.12567 64.5517 3.65567 64.207 3.029 64.019C2.40233 63.7997 1.58767 63.6587 0.585 63.596V61.81H11.818L23.662 89.587H23.85ZM62.3827 89.117C62.3827 90.6837 62.4453 91.9213 62.5707 92.83C62.696 93.7387 62.931 94.4437 63.2757 94.945C63.6517 95.4463 64.1687 95.7753 64.8267 95.932C65.516 96.0887 66.409 96.1827 67.5057 96.214V98H52.2777V96.214C53.3743 96.1827 54.2517 96.0887 54.9097 95.932C55.599 95.744 56.1317 95.415 56.5077 94.945C56.8837 94.475 57.1343 93.817 57.2597 92.971C57.385 92.0937 57.4477 90.9187 57.4477 89.446V70.364C57.4477 69.048 57.385 67.967 57.2597 67.121C57.1657 66.2437 56.9463 65.5543 56.6017 65.053C56.2883 64.5517 55.8183 64.207 55.1917 64.019C54.565 63.7997 53.7503 63.6587 52.7477 63.596V61.81H67.0357V63.596C66.033 63.6273 65.2183 63.7527 64.5917 63.972C63.9963 64.1913 63.5263 64.5673 63.1817 65.1C62.8683 65.6013 62.649 66.3063 62.5237 67.215C62.4297 68.1237 62.3827 69.283 62.3827 70.693V89.117ZM101.535 70.881C101.535 73.3877 100.783 75.4713 99.2795 77.132C97.7755 78.7927 95.3785 79.905 92.0885 80.469L102.475 92.971C103.321 94.005 104.246 94.757 105.248 95.227C106.282 95.6657 107.504 95.9947 108.914 96.214V98H99.8435L88.3285 83.242C87.9212 82.7093 87.5295 82.2863 87.1535 81.973C86.8088 81.6597 86.4328 81.4247 86.0255 81.268C85.6495 81.08 85.1952 80.9703 84.6625 80.939C84.1612 80.8763 83.5502 80.845 82.8295 80.845V90.621C82.8295 91.7803 82.8922 92.736 83.0175 93.488C83.1742 94.2087 83.4718 94.7727 83.9105 95.18C84.3805 95.5873 85.0385 95.8693 85.8845 96.026C86.7618 96.1513 87.9055 96.214 89.3155 96.214V98H72.7245V96.214C73.8212 96.1827 74.6985 96.0887 75.3565 95.932C76.0458 95.7753 76.5785 95.509 76.9545 95.133C77.3305 94.757 77.5812 94.2243 77.7065 93.535C77.8318 92.8457 77.8945 91.9527 77.8945 90.856V68.954C77.8945 67.8573 77.8318 66.98 77.7065 66.322C77.6125 65.6327 77.3932 65.1 77.0485 64.724C76.7352 64.3167 76.2652 64.0503 75.6385 63.925C75.0118 63.7683 74.1972 63.6587 73.1945 63.596V61.81H87.9525C92.2765 61.81 95.6135 62.609 97.9635 64.207C100.345 65.805 101.535 68.0297 101.535 70.881ZM82.8295 78.495H86.1665C89.2998 78.495 91.6185 77.931 93.1225 76.803C94.6578 75.6437 95.4255 73.748 95.4255 71.116C95.4255 68.578 94.8145 66.7607 93.5925 65.664C92.4018 64.5673 90.5218 64.019 87.9525 64.019H83.6285C83.0958 64.019 82.8295 64.2853 82.8295 64.818V78.495ZM120.81 89.117C120.81 90.6837 120.872 91.9213 120.998 92.83C121.123 93.7387 121.358 94.4437 121.703 94.945C122.079 95.4463 122.596 95.7753 123.254 95.932C123.943 96.0887 124.836 96.1827 125.933 96.214V98H110.705V96.214C111.801 96.1827 112.679 96.0887 113.337 95.932C114.026 95.744 114.559 95.415 114.935 94.945C115.311 94.475 115.561 93.817 115.687 92.971C115.812 92.0937 115.875 90.9187 115.875 89.446V70.364C115.875 69.048 115.812 67.967 115.687 67.121C115.593 66.2437 115.373 65.5543 115.029 65.053C114.715 64.5517 114.245 64.207 113.619 64.019C112.992 63.7997 112.177 63.6587 111.175 63.596V61.81H125.463V63.596C124.46 63.6273 123.645 63.7527 123.019 63.972C122.423 64.1913 121.953 64.5673 121.609 65.1C121.295 65.6013 121.076 66.3063 120.951 67.215C120.857 68.1237 120.81 69.283 120.81 70.693V89.117ZM141.256 90.527C141.256 91.7177 141.319 92.689 141.444 93.441C141.57 94.193 141.82 94.7727 142.196 95.18C142.572 95.5873 143.089 95.8693 143.747 96.026C144.405 96.1513 145.283 96.214 146.379 96.214V98H131.151V96.214C132.248 96.214 133.125 96.1513 133.783 96.026C134.473 95.8693 135.005 95.603 135.381 95.227C135.757 94.8197 136.008 94.2713 136.133 93.582C136.259 92.8613 136.321 91.9527 136.321 90.856V68.954C136.321 67.7633 136.243 66.8233 136.086 66.134C135.961 65.4133 135.71 64.865 135.334 64.489C134.99 64.113 134.52 63.878 133.924 63.784C133.329 63.6587 132.561 63.596 131.621 63.596V61.81H145.909V63.596C144.969 63.596 144.202 63.6587 143.606 63.784C143.011 63.9093 142.525 64.1757 142.149 64.583C141.805 64.9903 141.57 65.57 141.444 66.322C141.319 67.0427 141.256 68.0297 141.256 69.283V80.892L153.006 66.745C153.633 65.9617 153.946 65.3507 153.946 64.912C153.946 64.0347 153.053 63.596 151.267 63.596V61.81H162.594V63.549C161.968 63.549 161.419 63.596 160.949 63.69C160.479 63.7527 160.009 63.9093 159.539 64.16C159.101 64.4107 158.631 64.771 158.129 65.241C157.628 65.711 157.048 66.322 156.39 67.074L147.554 77.273L161.278 93.77C162.062 94.6787 162.798 95.321 163.487 95.697C164.177 96.0417 165.101 96.214 166.26 96.214V98H151.831V96.214C153.053 96.214 153.931 96.12 154.463 95.932C154.996 95.7127 155.262 95.3837 155.262 94.945C155.262 94.6943 155.137 94.334 154.886 93.864C154.636 93.394 154.228 92.8143 153.664 92.125L144.499 80.845L141.256 84.605V90.527ZM177.883 89.117C177.883 90.6837 177.946 91.9213 178.071 92.83C178.197 93.7387 178.432 94.4437 178.776 94.945C179.152 95.4463 179.669 95.7753 180.327 95.932C181.017 96.0887 181.91 96.1827 183.006 96.214V98H167.778V96.214C168.875 96.1827 169.752 96.0887 170.41 95.932C171.1 95.744 171.632 95.415 172.008 94.945C172.384 94.475 172.635 93.817 172.76 92.971C172.886 92.0937 172.948 90.9187 172.948 89.446V70.364C172.948 69.048 172.886 67.967 172.76 67.121C172.666 66.2437 172.447 65.5543 172.102 65.053C171.789 64.5517 171.319 64.207 170.692 64.019C170.066 63.7997 169.251 63.6587 168.248 63.596V61.81H182.536V63.596C181.534 63.6273 180.719 63.7527 180.092 63.972C179.497 64.1913 179.027 64.5673 178.682 65.1C178.369 65.6013 178.15 66.3063 178.024 67.215C177.93 68.1237 177.883 69.283 177.883 70.693V89.117ZM187.896 98V96.214C189.087 96.1827 190.042 96.1043 190.763 95.979C191.515 95.8223 192.095 95.556 192.502 95.18C192.909 94.7727 193.176 94.24 193.301 93.582C193.458 92.8927 193.536 91.984 193.536 90.856V68.954C193.536 67.8573 193.473 66.98 193.348 66.322C193.254 65.6327 193.035 65.1 192.69 64.724C192.377 64.3167 191.907 64.0503 191.28 63.925C190.653 63.7683 189.839 63.6587 188.836 63.596V61.81H205.333C208.153 61.81 210.754 62.28 213.135 63.22C215.548 64.16 217.616 65.4603 219.339 67.121C221.094 68.7817 222.457 70.7557 223.428 73.043C224.399 75.3303 224.885 77.8213 224.885 80.516C224.885 83.0853 224.431 85.451 223.522 87.613C222.613 89.7437 221.329 91.5767 219.668 93.112C218.039 94.6473 216.08 95.8537 213.793 96.731C211.506 97.577 208.999 98 206.273 98H187.896ZM199.27 64.113C198.737 64.113 198.471 64.3793 198.471 64.912V90.339C198.471 93.911 200.805 95.697 205.474 95.697C209.767 95.697 213.057 94.428 215.344 91.89C217.631 89.3207 218.775 85.5607 218.775 80.61C218.775 78.0093 218.462 75.6907 217.835 73.654C217.208 71.6173 216.3 69.894 215.109 68.484C213.95 67.074 212.54 65.993 210.879 65.241C209.218 64.489 207.338 64.113 205.239 64.113H199.27ZM244.944 84.887H232.395C231.863 86.1717 231.408 87.3153 231.032 88.318C230.656 89.2893 230.343 90.1353 230.092 90.856C229.873 91.5767 229.716 92.1877 229.622 92.689C229.528 93.1903 229.481 93.5977 229.481 93.911C229.481 94.7883 229.763 95.3993 230.327 95.744C230.891 96.0573 231.831 96.214 233.147 96.214V98H221.726V96.214C222.447 96.12 223.058 95.9947 223.559 95.838C224.092 95.6813 224.546 95.462 224.922 95.18C225.33 94.898 225.674 94.5377 225.956 94.099C226.27 93.629 226.567 93.065 226.849 92.407L239.069 61.81H241.09L251.759 88.318C252.48 90.0727 253.107 91.4827 253.639 92.548C254.172 93.582 254.689 94.3653 255.19 94.898C255.692 95.4307 256.224 95.7753 256.788 95.932C257.384 96.0887 258.089 96.167 258.903 96.167V98H243.581V96.167C245.242 96.167 246.386 96.0103 247.012 95.697C247.639 95.3837 247.952 94.8667 247.952 94.146C247.952 93.8327 247.937 93.5507 247.905 93.3C247.874 93.018 247.811 92.7203 247.717 92.407C247.655 92.0937 247.545 91.749 247.388 91.373C247.263 90.9657 247.091 90.4957 246.871 89.963L244.944 84.887ZM233.335 82.537H244.051L238.834 68.672L233.335 82.537ZM290.462 98.47L268.137 69.048H267.949V89.117C267.949 90.6837 267.996 91.9213 268.09 92.83C268.215 93.7387 268.435 94.4437 268.748 94.945C269.093 95.4463 269.563 95.7753 270.158 95.932C270.785 96.0887 271.599 96.1827 272.602 96.214V98H259.959V96.214C261.056 96.1827 261.933 96.0887 262.591 95.932C263.28 95.744 263.813 95.415 264.189 94.945C264.565 94.475 264.816 93.817 264.941 92.971C265.066 92.0937 265.129 90.9187 265.129 89.446V70.364C265.129 69.048 265.066 67.967 264.941 67.121C264.847 66.2437 264.628 65.5543 264.283 65.053C263.97 64.5517 263.5 64.207 262.873 64.019C262.246 63.7997 261.432 63.6587 260.429 63.596V61.81H269.735L290.274 89.211H290.462V70.693C290.462 69.1577 290.399 67.9357 290.274 67.027C290.18 66.087 289.961 65.3663 289.616 64.865C289.303 64.3637 288.833 64.0347 288.206 63.878C287.611 63.7213 286.812 63.6273 285.809 63.596V61.81H298.452V63.596C297.355 63.6273 296.462 63.737 295.773 63.925C295.115 64.0817 294.598 64.395 294.222 64.865C293.846 65.335 293.595 66.0087 293.47 66.886C293.345 67.7633 293.282 68.9227 293.282 70.364V98.47H290.462ZM312.474 89.117C312.474 90.6837 312.537 91.9213 312.662 92.83C312.787 93.7387 313.022 94.4437 313.367 94.945C313.743 95.4463 314.26 95.7753 314.918 95.932C315.607 96.0887 316.5 96.1827 317.597 96.214V98H302.369V96.214C303.466 96.1827 304.343 96.0887 305.001 95.932C305.69 95.744 306.223 95.415 306.599 94.945C306.975 94.475 307.226 93.817 307.351 92.971C307.476 92.0937 307.539 90.9187 307.539 89.446V70.364C307.539 69.048 307.476 67.967 307.351 67.121C307.257 66.2437 307.038 65.5543 306.693 65.053C306.38 64.5517 305.91 64.207 305.283 64.019C304.656 63.7997 303.842 63.6587 302.839 63.596V61.81H317.127V63.596C316.124 63.6273 315.31 63.7527 314.683 63.972C314.088 64.1913 313.618 64.5673 313.273 65.1C312.96 65.6013 312.74 66.3063 312.615 67.215C312.521 68.1237 312.474 69.283 312.474 70.693V89.117Z" fill="#272116"/>
</svg>
