<svg width="1081" height="285" viewBox="0 0 1081 285" fill="none" xmlns="http://www.w3.org/2000/svg">
<path d="M79.25 93.255L119.55 1.64999H154.27V7.53999C150.963 7.64333 148.277 8.05666 146.21 8.77999C144.247 9.50333 142.697 10.7433 141.56 12.5C140.527 14.1533 139.803 16.4783 139.39 19.475C139.08 22.4717 138.925 26.295 138.925 30.945V91.705C138.925 96.8717 139.132 100.953 139.545 103.95C139.958 106.947 140.733 109.272 141.87 110.925C143.11 112.578 144.815 113.663 146.985 114.18C149.258 114.697 152.203 115.007 155.82 115.11V121H105.6V115.11C109.217 115.007 112.11 114.697 114.28 114.18C116.553 113.56 118.31 112.475 119.55 110.925C120.79 109.375 121.617 107.205 122.03 104.415C122.443 101.522 122.65 97.6467 122.65 92.79V20.87H121.1L75.84 122.55H72.43L27.945 20.87H27.325V91.705C27.325 96.8717 27.5317 100.953 27.945 103.95C28.3583 106.947 29.1333 109.272 30.27 110.925C31.51 112.578 33.215 113.663 35.385 114.18C37.6583 114.697 40.6033 115.007 44.22 115.11V121H0.975V115.11C4.59167 115.007 7.485 114.697 9.655 114.18C11.9283 113.56 13.685 112.475 14.925 110.925C16.165 109.375 16.9917 107.205 17.405 104.415C17.8183 101.522 18.025 97.6467 18.025 92.79V29.86C18.025 25.52 17.8183 21.955 17.405 19.165C17.095 16.2717 16.3717 13.9983 15.235 12.345C14.2017 10.6917 12.6517 9.555 10.585 8.93499C8.51833 8.21166 5.83167 7.74666 2.525 7.53999V1.64999H39.57L78.63 93.255H79.25ZM223.272 0.0999952C232.365 0.0999952 240.838 1.70166 248.692 4.905C256.545 8.10833 263.365 12.5 269.152 18.08C274.938 23.66 279.485 30.2217 282.792 37.765C286.098 45.3083 287.752 53.4717 287.752 62.255C287.752 70.625 286.047 78.4783 282.637 85.815C279.33 93.1517 274.783 99.5583 268.997 105.035C263.21 110.408 256.39 114.697 248.537 117.9C240.683 121 232.262 122.55 223.272 122.55C214.282 122.55 205.86 121 198.007 117.9C190.153 114.697 183.333 110.408 177.547 105.035C171.76 99.5583 167.162 93.1517 163.752 85.815C160.445 78.4783 158.792 70.625 158.792 62.255C158.792 53.4717 160.445 45.3083 163.752 37.765C167.058 30.2217 171.605 23.66 177.392 18.08C183.178 12.5 189.998 8.10833 197.852 4.905C205.705 1.70166 214.178 0.0999952 223.272 0.0999952ZM223.272 114.025C230.092 114.025 236.188 112.837 241.562 110.46C247.038 108.083 251.688 104.673 255.512 100.23C259.438 95.7867 262.435 90.4133 264.502 84.11C266.568 77.7033 267.602 70.5733 267.602 62.72C267.602 54.4533 266.568 47.0133 264.502 40.4C262.435 33.6833 259.49 28 255.667 23.35C251.843 18.5967 247.193 14.98 241.717 12.5C236.24 9.91666 230.092 8.625 223.272 8.625C216.452 8.625 210.303 9.91666 204.827 12.5C199.35 14.98 194.7 18.5967 190.877 23.35C187.053 28 184.108 33.6833 182.042 40.4C179.975 47.0133 178.942 54.4533 178.942 62.72C178.942 70.5733 179.975 77.7033 182.042 84.11C184.108 90.4133 187.053 95.7867 190.877 100.23C194.7 104.673 199.35 108.083 204.827 110.46C210.303 112.837 216.452 114.025 223.272 114.025ZM326.081 55.435C331.661 55.435 336.311 55.125 340.031 54.505C343.855 53.7817 346.851 52.6967 349.021 51.25C351.295 49.8033 352.896 47.9433 353.826 45.67C354.86 43.3967 355.376 40.71 355.376 37.61H360.801V79.925H355.376C355.376 76.825 354.911 74.1383 353.981 71.865C353.155 69.5917 351.605 67.7317 349.331 66.285C347.161 64.735 344.165 63.5983 340.341 62.875C336.621 62.0483 331.868 61.635 326.081 61.635V96.665C326.081 100.075 326.495 102.917 327.321 105.19C328.148 107.36 329.543 109.168 331.506 110.615C333.573 111.958 336.26 112.94 339.566 113.56C342.873 114.077 346.955 114.335 351.811 114.335C357.288 114.335 361.938 113.973 365.761 113.25C369.585 112.423 372.788 111.08 375.371 109.22C377.955 107.36 380.021 104.932 381.571 101.935C383.121 98.835 384.413 95.0117 385.446 90.465H391.336L389.011 121H292.756V115.11C296.373 115.007 299.266 114.697 301.436 114.18C303.71 113.663 305.466 112.785 306.706 111.545C307.946 110.305 308.773 108.548 309.186 106.275C309.6 104.002 309.806 101.057 309.806 97.44V25.21C309.806 21.5933 309.6 18.7 309.186 16.53C308.876 14.2567 308.153 12.5 307.016 11.26C305.983 9.91666 304.433 9.03833 302.366 8.625C300.3 8.10833 297.613 7.74666 294.306 7.53999V1.64999H383.896L385.291 28.93H379.866C379.246 24.7967 378.213 21.4383 376.766 18.855C375.423 16.1683 373.511 14.05 371.031 12.5C368.655 10.95 365.606 9.865 361.886 9.245C358.166 8.62499 353.671 8.31499 348.401 8.31499H328.716C326.96 8.31499 326.081 9.19333 326.081 10.95V55.435ZM500.237 31.565C500.237 39.8317 497.757 46.7033 492.797 52.18C487.837 57.6567 479.932 61.325 469.082 63.185L503.337 104.415C506.127 107.825 509.176 110.305 512.482 111.855C515.892 113.302 519.922 114.387 524.572 115.11V121H494.657L456.682 72.33C455.339 70.5733 454.047 69.1783 452.807 68.145C451.671 67.1117 450.431 66.3367 449.087 65.82C447.847 65.2 446.349 64.8383 444.592 64.735C442.939 64.5283 440.924 64.425 438.547 64.425V96.665C438.547 100.488 438.754 103.64 439.167 106.12C439.684 108.497 440.666 110.357 442.112 111.7C443.662 113.043 445.832 113.973 448.622 114.49C451.516 114.903 455.287 115.11 459.937 115.11V121H405.222V115.11C408.839 115.007 411.732 114.697 413.902 114.18C416.176 113.663 417.932 112.785 419.172 111.545C420.412 110.305 421.239 108.548 421.652 106.275C422.066 104.002 422.272 101.057 422.272 97.44V25.21C422.272 21.5933 422.066 18.7 421.652 16.53C421.342 14.2567 420.619 12.5 419.482 11.26C418.449 9.91666 416.899 9.03833 414.832 8.625C412.766 8.10833 410.079 7.74666 406.772 7.53999V1.64999H455.442C469.702 1.64999 480.707 4.28499 488.457 9.55499C496.311 14.825 500.237 22.1617 500.237 31.565ZM438.547 56.675H449.552C459.886 56.675 467.532 54.815 472.492 51.095C477.556 47.2717 480.087 41.02 480.087 32.34C480.087 23.97 478.072 17.9767 474.042 14.36C470.116 10.7433 463.916 8.93499 455.442 8.93499H441.182C439.426 8.93499 438.547 9.81333 438.547 11.57V56.675ZM560.701 91.705C560.701 96.8717 560.907 100.953 561.321 103.95C561.734 106.947 562.509 109.272 563.646 110.925C564.886 112.578 566.591 113.663 568.761 114.18C571.034 114.697 573.979 115.007 577.596 115.11V121H527.376V115.11C530.992 115.007 533.886 114.697 536.056 114.18C538.329 113.56 540.086 112.475 541.326 110.925C542.566 109.375 543.392 107.205 543.806 104.415C544.219 101.522 544.426 97.6467 544.426 92.79V29.86C544.426 25.52 544.219 21.955 543.806 19.165C543.496 16.2717 542.772 13.9983 541.636 12.345C540.602 10.6917 539.052 9.555 536.986 8.93499C534.919 8.21166 532.232 7.74666 528.926 7.53999V1.64999H576.046V7.53999C572.739 7.64333 570.052 8.05666 567.986 8.77999C566.022 9.50333 564.472 10.7433 563.336 12.5C562.302 14.1533 561.579 16.4783 561.166 19.475C560.856 22.4717 560.701 26.295 560.701 30.945V91.705ZM79.25 255.255L119.55 163.65H154.27V169.54C150.963 169.643 148.277 170.057 146.21 170.78C144.247 171.503 142.697 172.743 141.56 174.5C140.527 176.153 139.803 178.478 139.39 181.475C139.08 184.472 138.925 188.295 138.925 192.945V253.705C138.925 258.872 139.132 262.953 139.545 265.95C139.958 268.947 140.733 271.272 141.87 272.925C143.11 274.578 144.815 275.663 146.985 276.18C149.258 276.697 152.203 277.007 155.82 277.11V283H105.6V277.11C109.217 277.007 112.11 276.697 114.28 276.18C116.553 275.56 118.31 274.475 119.55 272.925C120.79 271.375 121.617 269.205 122.03 266.415C122.443 263.522 122.65 259.647 122.65 254.79V182.87H121.1L75.84 284.55H72.43L27.945 182.87H27.325V253.705C27.325 258.872 27.5317 262.953 27.945 265.95C28.3583 268.947 29.1333 271.272 30.27 272.925C31.51 274.578 33.215 275.663 35.385 276.18C37.6583 276.697 40.6033 277.007 44.22 277.11V283H0.975V277.11C4.59167 277.007 7.485 276.697 9.655 276.18C11.9283 275.56 13.685 274.475 14.925 272.925C16.165 271.375 16.9917 269.205 17.405 266.415C17.8183 263.522 18.025 259.647 18.025 254.79V191.86C18.025 187.52 17.8183 183.955 17.405 181.165C17.095 178.272 16.3717 175.998 15.235 174.345C14.2017 172.692 12.6517 171.555 10.585 170.935C8.51833 170.212 5.83167 169.747 2.525 169.54V163.65H39.57L78.63 255.255H79.25ZM210.976 253.705C210.976 258.872 211.182 262.953 211.596 265.95C212.009 268.947 212.784 271.272 213.921 272.925C215.161 274.578 216.866 275.663 219.036 276.18C221.309 276.697 224.254 277.007 227.871 277.11V283H177.651V277.11C181.267 277.007 184.161 276.697 186.331 276.18C188.604 275.56 190.361 274.475 191.601 272.925C192.841 271.375 193.667 269.205 194.081 266.415C194.494 263.522 194.701 259.647 194.701 254.79V191.86C194.701 187.52 194.494 183.955 194.081 181.165C193.771 178.272 193.047 175.998 191.911 174.345C190.877 172.692 189.327 171.555 187.261 170.935C185.194 170.212 182.507 169.747 179.201 169.54V163.65H226.321V169.54C223.014 169.643 220.327 170.057 218.261 170.78C216.297 171.503 214.747 172.743 213.611 174.5C212.577 176.153 211.854 178.478 211.441 181.475C211.131 184.472 210.976 188.295 210.976 192.945V253.705ZM344.747 193.565C344.747 201.832 342.267 208.703 337.307 214.18C332.347 219.657 324.442 223.325 313.592 225.185L347.847 266.415C350.637 269.825 353.685 272.305 356.992 273.855C360.402 275.302 364.432 276.387 369.082 277.11V283H339.167L301.192 234.33C299.849 232.573 298.557 231.178 297.317 230.145C296.18 229.112 294.94 228.337 293.597 227.82C292.357 227.2 290.859 226.838 289.102 226.735C287.449 226.528 285.434 226.425 283.057 226.425V258.665C283.057 262.488 283.264 265.64 283.677 268.12C284.194 270.497 285.175 272.357 286.622 273.7C288.172 275.043 290.342 275.973 293.132 276.49C296.025 276.903 299.797 277.11 304.447 277.11V283H249.732V277.11C253.349 277.007 256.242 276.697 258.412 276.18C260.685 275.663 262.442 274.785 263.682 273.545C264.922 272.305 265.749 270.548 266.162 268.275C266.575 266.002 266.782 263.057 266.782 259.44V187.21C266.782 183.593 266.575 180.7 266.162 178.53C265.852 176.257 265.129 174.5 263.992 173.26C262.959 171.917 261.409 171.038 259.342 170.625C257.275 170.108 254.589 169.747 251.282 169.54V163.65H299.952C314.212 163.65 325.217 166.285 332.967 171.555C340.82 176.825 344.747 184.162 344.747 193.565ZM283.057 218.675H294.062C304.395 218.675 312.042 216.815 317.002 213.095C322.065 209.272 324.597 203.02 324.597 194.34C324.597 185.97 322.582 179.977 318.552 176.36C314.625 172.743 308.425 170.935 299.952 170.935H285.692C283.935 170.935 283.057 171.813 283.057 173.57V218.675ZM412.96 253.705C412.96 258.872 413.167 262.953 413.58 265.95C413.993 268.947 414.768 271.272 415.905 272.925C417.145 274.578 418.85 275.663 421.02 276.18C423.293 276.697 426.238 277.007 429.855 277.11V283H379.635V277.11C383.252 277.007 386.145 276.697 388.315 276.18C390.588 275.56 392.345 274.475 393.585 272.925C394.825 271.375 395.652 269.205 396.065 266.415C396.478 263.522 396.685 259.647 396.685 254.79V191.86C396.685 187.52 396.478 183.955 396.065 181.165C395.755 178.272 395.032 175.998 393.895 174.345C392.862 172.692 391.312 171.555 389.245 170.935C387.178 170.212 384.492 169.747 381.185 169.54V163.65H428.305V169.54C424.998 169.643 422.312 170.057 420.245 170.78C418.282 171.503 416.732 172.743 415.595 174.5C414.562 176.153 413.838 178.478 413.425 181.475C413.115 184.472 412.96 188.295 412.96 192.945V253.705ZM485.041 258.355C485.041 262.282 485.248 265.485 485.661 267.965C486.075 270.445 486.901 272.357 488.141 273.7C489.381 275.043 491.086 275.973 493.256 276.49C495.426 276.903 498.32 277.11 501.936 277.11V283H451.716V277.11C455.333 277.11 458.226 276.903 460.396 276.49C462.67 275.973 464.426 275.095 465.666 273.855C466.906 272.512 467.733 270.703 468.146 268.43C468.56 266.053 468.766 263.057 468.766 259.44V187.21C468.766 183.283 468.508 180.183 467.991 177.91C467.578 175.533 466.751 173.725 465.511 172.485C464.375 171.245 462.825 170.47 460.861 170.16C458.898 169.747 456.366 169.54 453.266 169.54V163.65H500.386V169.54C497.286 169.54 494.755 169.747 492.791 170.16C490.828 170.573 489.226 171.452 487.986 172.795C486.85 174.138 486.075 176.05 485.661 178.53C485.248 180.907 485.041 184.162 485.041 188.295V226.58L523.791 179.925C525.858 177.342 526.891 175.327 526.891 173.88C526.891 170.987 523.946 169.54 518.056 169.54V163.65H555.411V169.385C553.345 169.385 551.536 169.54 549.986 169.85C548.436 170.057 546.886 170.573 545.336 171.4C543.89 172.227 542.34 173.415 540.686 174.965C539.033 176.515 537.121 178.53 534.951 181.01L505.811 214.645L551.071 269.05C553.655 272.047 556.083 274.165 558.356 275.405C560.63 276.542 563.678 277.11 567.501 277.11V283H519.916V277.11C523.946 277.11 526.84 276.8 528.596 276.18C530.353 275.457 531.231 274.372 531.231 272.925C531.231 272.098 530.818 270.91 529.991 269.36C529.165 267.81 527.821 265.898 525.961 263.625L495.736 226.425L485.041 238.825V258.355ZM613.582 253.705C613.582 258.872 613.789 262.953 614.202 265.95C614.616 268.947 615.391 271.272 616.527 272.925C617.767 274.578 619.472 275.663 621.642 276.18C623.916 276.697 626.861 277.007 630.477 277.11V283H580.257V277.11C583.874 277.007 586.767 276.697 588.937 276.18C591.211 275.56 592.967 274.475 594.207 272.925C595.447 271.375 596.274 269.205 596.687 266.415C597.101 263.522 597.307 259.647 597.307 254.79V191.86C597.307 187.52 597.101 183.955 596.687 181.165C596.377 178.272 595.654 175.998 594.517 174.345C593.484 172.692 591.934 171.555 589.867 170.935C587.801 170.212 585.114 169.747 581.807 169.54V163.65H628.927V169.54C625.621 169.643 622.934 170.057 620.867 170.78C618.904 171.503 617.354 172.743 616.217 174.5C615.184 176.153 614.461 178.478 614.047 181.475C613.737 184.472 613.582 188.295 613.582 192.945V253.705ZM651.253 283V277.11C655.18 277.007 658.332 276.748 660.708 276.335C663.188 275.818 665.1 274.94 666.443 273.7C667.787 272.357 668.665 270.6 669.078 268.43C669.595 266.157 669.853 263.16 669.853 259.44V187.21C669.853 183.593 669.647 180.7 669.233 178.53C668.923 176.257 668.2 174.5 667.063 173.26C666.03 171.917 664.48 171.038 662.413 170.625C660.347 170.108 657.66 169.747 654.353 169.54V163.65H708.758C718.058 163.65 726.635 165.2 734.488 168.3C742.445 171.4 749.265 175.688 754.948 181.165C760.735 186.642 765.23 193.152 768.433 200.695C771.637 208.238 773.238 216.453 773.238 225.34C773.238 233.813 771.74 241.615 768.743 248.745C765.747 255.772 761.51 261.817 756.033 266.88C750.66 271.943 744.202 275.922 736.658 278.815C729.115 281.605 720.848 283 711.858 283H651.253ZM688.763 171.245C687.007 171.245 686.128 172.123 686.128 173.88V257.735C686.128 269.515 693.827 275.405 709.223 275.405C723.38 275.405 734.23 271.22 741.773 262.85C749.317 254.377 753.088 241.977 753.088 225.65C753.088 217.073 752.055 209.427 749.988 202.71C747.922 195.993 744.925 190.31 740.998 185.66C737.175 181.01 732.525 177.445 727.048 174.965C721.572 172.485 715.372 171.245 708.448 171.245H688.763ZM840.941 239.755H799.556C797.799 243.992 796.301 247.763 795.061 251.07C793.821 254.273 792.787 257.063 791.961 259.44C791.237 261.817 790.721 263.832 790.411 265.485C790.101 267.138 789.946 268.482 789.946 269.515C789.946 272.408 790.876 274.423 792.736 275.56C794.596 276.593 797.696 277.11 802.036 277.11V283H764.371V277.11C766.747 276.8 768.762 276.387 770.416 275.87C772.172 275.353 773.671 274.63 774.911 273.7C776.254 272.77 777.391 271.582 778.321 270.135C779.354 268.585 780.336 266.725 781.266 264.555L821.566 163.65H828.231L863.416 251.07C865.792 256.857 867.859 261.507 869.616 265.02C871.372 268.43 873.077 271.013 874.731 272.77C876.384 274.527 878.141 275.663 880.001 276.18C881.964 276.697 884.289 276.955 886.976 276.955V283H836.446V276.955C841.922 276.955 845.694 276.438 847.761 275.405C849.827 274.372 850.861 272.667 850.861 270.29C850.861 269.257 850.809 268.327 850.706 267.5C850.602 266.57 850.396 265.588 850.086 264.555C849.879 263.522 849.517 262.385 849.001 261.145C848.587 259.802 848.019 258.252 847.296 256.495L840.941 239.755ZM802.656 232.005H837.996L820.791 186.28L802.656 232.005ZM991.052 284.55L917.427 187.52H916.807V253.705C916.807 258.872 916.962 262.953 917.272 265.95C917.685 268.947 918.409 271.272 919.442 272.925C920.579 274.578 922.129 275.663 924.092 276.18C926.159 276.697 928.845 277.007 932.152 277.11V283H890.457V277.11C894.074 277.007 896.967 276.697 899.137 276.18C901.41 275.56 903.167 274.475 904.407 272.925C905.647 271.375 906.474 269.205 906.887 266.415C907.3 263.522 907.507 259.647 907.507 254.79V191.86C907.507 187.52 907.3 183.955 906.887 181.165C906.577 178.272 905.854 175.998 904.717 174.345C903.684 172.692 902.134 171.555 900.067 170.935C898 170.212 895.314 169.747 892.007 169.54V163.65H922.697L990.432 254.015H991.052V192.945C991.052 187.882 990.845 183.852 990.432 180.855C990.122 177.755 989.399 175.378 988.262 173.725C987.229 172.072 985.679 170.987 983.612 170.47C981.649 169.953 979.014 169.643 975.707 169.54V163.65H1017.4V169.54C1013.79 169.643 1010.84 170.005 1008.57 170.625C1006.4 171.142 1004.69 172.175 1003.45 173.725C1002.21 175.275 1001.39 177.497 1000.97 180.39C1000.56 183.283 1000.35 187.107 1000.35 191.86V284.55H991.052ZM1063.65 253.705C1063.65 258.872 1063.85 262.953 1064.27 265.95C1064.68 268.947 1065.45 271.272 1066.59 272.925C1067.83 274.578 1069.54 275.663 1071.71 276.18C1073.98 276.697 1076.92 277.007 1080.54 277.11V283H1030.32V277.11C1033.94 277.007 1036.83 276.697 1039 276.18C1041.27 275.56 1043.03 274.475 1044.27 272.925C1045.51 271.375 1046.34 269.205 1046.75 266.415C1047.16 263.522 1047.37 259.647 1047.37 254.79V191.86C1047.37 187.52 1047.16 183.955 1046.75 181.165C1046.44 178.272 1045.72 175.998 1044.58 174.345C1043.55 172.692 1042 171.555 1039.93 170.935C1037.86 170.212 1035.18 169.747 1031.87 169.54V163.65H1078.99V169.54C1075.68 169.643 1073 170.057 1070.93 170.78C1068.97 171.503 1067.42 172.743 1066.28 174.5C1065.25 176.153 1064.52 178.478 1064.11 181.475C1063.8 184.472 1063.65 188.295 1063.65 192.945V253.705Z" fill="#272116"/>
</svg>
